<?xml version="1.0" encoding="utf-8"?>
<!-- Generator: Adobe Illustrator 16.0.0, SVG Export Plug-In . SVG Version: 6.00 Build 0)  -->
<!DOCTYPE svg PUBLIC "-//W3C//DTD SVG 1.1//EN" "http://www.w3.org/Graphics/SVG/1.1/DTD/svg11.dtd">
<svg version="1.1" id="Layer_2" xmlns="http://www.w3.org/2000/svg" xmlns:xlink="http://www.w3.org/1999/xlink" x="0px" y="0px"
	 width="1080px" height="1080px" viewBox="0 0 1080 1080" style="enable-background:new 0 0 1080 1080;" xml:space="preserve">
<g>
	<g>
		<polygon style="fill:#FFFFFF;" points="664.68,549.52 407.59,549.52 407.59,413.57 424.8,413.57 424.8,532.31 647.47,532.31 
			647.47,413.57 664.68,413.57 		"/>
	</g>
	<g>
		<polygon style="fill:#FFFFFF;" points="628.3,822.66 443.97,822.66 443.97,609.83 466.91,609.83 466.91,799.71 605.36,799.71 
			605.36,609.83 628.3,609.83 		"/>
	</g>
	<g>
		<path style="fill:#FFFFFF;" d="M424.42,819.57L168.34,671.73V247.04L536.13,34.69l367.8,212.35v424.69L647.85,819.57V590.04
			H424.42V819.57z M185.55,661.8l221.66,127.97V572.83h257.85v216.93L886.72,661.8V256.97L536.13,54.56L185.55,256.97V661.8z"/>
	</g>
	<g>
		<polygon style="fill:#FFFFFF;" points="380.7,744.96 216.99,648.1 216.99,278.3 537.28,93.38 857.57,278.3 857.57,648.1 
			693.34,744.92 692.16,346.6 703.63,346.56 704.75,724.87 846.1,641.55 846.1,284.92 537.28,106.63 228.47,284.92 228.47,641.56 
			369.19,724.82 368.64,347.09 380.11,347.07 		"/>
	</g>
	<g>
		<path style="fill:#FFFFFF;" d="M417.2,421.31c-14.97,0-27.15-12.18-27.15-27.15c0-14.97,12.18-27.15,27.15-27.15
			c14.97,0,27.15,12.18,27.15,27.15C444.35,409.13,432.17,421.31,417.2,421.31z M417.2,378.48c-8.65,0-15.68,7.03-15.68,15.68
			c0,8.64,7.03,15.68,15.68,15.68c8.65,0,15.68-7.03,15.68-15.68C432.88,385.51,425.85,378.48,417.2,378.48z"/>
	</g>
	<g>
		<path style="fill:#FFFFFF;" d="M374.4,355.76c-14.34,0-26-11.67-26-26c0-14.34,11.67-26,26-26c14.34,0,26,11.66,26,26
			C400.4,344.09,388.74,355.76,374.4,355.76z M374.4,312.93c-9.28,0-16.83,7.55-16.83,16.83s7.55,16.83,16.83,16.83
			c9.28,0,16.83-7.55,16.83-16.83S383.68,312.93,374.4,312.93z"/>
	</g>
	<g>
		<path style="fill:#FFFFFF;" d="M697.65,355.76c-14.34,0-26-11.67-26-26c0-14.34,11.67-26,26-26c14.34,0,26,11.66,26,26
			C723.65,344.09,711.99,355.76,697.65,355.76z M697.65,312.93c-9.28,0-16.82,7.55-16.82,16.83s7.55,16.83,16.82,16.83
			s16.83-7.55,16.83-16.83S706.92,312.93,697.65,312.93z"/>
	</g>
	<g>
		<path style="fill:#FFFFFF;" d="M656.07,421.31c-14.97,0-27.15-12.18-27.15-27.15c0-14.97,12.18-27.15,27.15-27.15
			c14.97,0,27.15,12.18,27.15,27.15C683.23,409.13,671.05,421.31,656.07,421.31z M656.07,378.48c-8.64,0-15.68,7.03-15.68,15.68
			c0,8.64,7.03,15.68,15.68,15.68c8.65,0,15.68-7.03,15.68-15.68C671.75,385.51,664.72,378.48,656.07,378.48z"/>
	</g>
	<g>
		<path style="fill:#FFFFFF;" d="M233.47,1045.31h-26.44V944.3l-35.52,0.01v101H145.3V869.97h26.22v49.91l35.52-0.01v-49.91h26.44
			V1045.31z"/>
		<path style="fill:#FFFFFF;" d="M343.15,1045.31h-25.99l-5.27-33.27h-32.83l-5.27,33.27h-25.88v-0.45l33.95-175.11h27.56
			L343.15,1045.31z M308.2,989.51l-12.77-79.1l-12.88,79.1H308.2z"/>
		<path style="fill:#FFFFFF;" d="M444.1,1029.29c0,10.68-5.34,16.02-16.02,16.02H373.4c-10.38,0-15.57-5.34-15.57-16.02V886.1
			c0-10.75,5.19-16.13,15.57-16.13h54.67c10.68,0,16.02,5.38,16.02,16.13v24.86h-26.1v-18.48h-33.95v130.3h33.95V980.3h26.1V1029.29
			z"/>
		<path style="fill:#FFFFFF;" d="M553.11,1045.31H524.2l-33.27-78.2v78.2h-26.22V869.97h26.22v74.17l29.13-74.17h28.68v1.23
			l-35.63,83.24L553.11,1045.31z"/>
		<path style="fill:#FFFFFF;" d="M698.64,1029.29c0,10.68-5.38,16.02-16.13,16.02h-55.68c-10.61,0-15.91-5.34-15.91-16.02V869.97
			h26.22v152.82h35.29V869.97h26.22V1029.29z"/>
		<path style="fill:#FFFFFF;" d="M746.37,1045.31h-26.22V869.97h26.22V1045.31z"/>
		<path style="fill:#FFFFFF;" d="M840.59,1045.31h-72.71V869.97h72.04v23.19H794.1v28.47h39.44v22.74H794.1v77.74h46.49V1045.31z"/>
		<path style="fill:#FFFFFF;" d="M934.71,893.16H905.8v152.15h-26.1V893.16h-28.91v-23.19h83.92V893.16z"/>
	</g>
</g>
</svg>
